<svg width="100" height="100" viewBox="0 0 100 100" fill="none" xmlns="http://www.w3.org/2000/svg">
<rect width="100" height="100" rx="50" fill="#E2E2E2"/>
<path d="M50.0002 32.1689V44.8252" stroke="#8C8C8C" stroke-width="1.40625" stroke-linecap="round" stroke-linejoin="round"/>
<path d="M43.6719 38.4973H56.3281" stroke="#8C8C8C" stroke-width="1.40625" stroke-linecap="round" stroke-linejoin="round"/>
<path d="M21.7713 62.6815L19.2038 69.75H18.1545L21.1108 61.9943H21.7873L21.7713 62.6815ZM23.9233 69.75L21.3505 62.6815L21.3345 61.9943H22.011L24.978 69.75H23.9233ZM23.7901 66.8789V67.7205H19.4329V66.8789H23.7901ZM29.3965 68.6314V61.5682H30.3872V69.75H29.4817L29.3965 68.6314ZM25.5186 66.9322V66.8203C25.5186 66.38 25.5719 65.9805 25.6784 65.6218C25.7885 65.2596 25.943 64.9489 26.1418 64.6896C26.3443 64.4304 26.584 64.2315 26.8609 64.093C27.1415 63.951 27.454 63.88 27.7984 63.88C28.1607 63.88 28.4767 63.9439 28.7466 64.0717C29.02 64.196 29.2509 64.3789 29.4391 64.6204C29.6308 64.8583 29.7818 65.146 29.8918 65.4833C30.0019 65.8207 30.0783 66.2024 30.1209 66.6286V67.1186C30.0818 67.5412 30.0055 67.9212 29.8918 68.2585C29.7818 68.5959 29.6308 68.8835 29.4391 69.1214C29.2509 69.3594 29.02 69.5423 28.7466 69.6701C28.4732 69.7944 28.1536 69.8565 27.7878 69.8565C27.4504 69.8565 27.1415 69.7837 26.8609 69.6381C26.584 69.4925 26.3443 69.2884 26.1418 69.0256C25.943 68.7628 25.7885 68.4538 25.6784 68.0987C25.5719 67.7401 25.5186 67.3512 25.5186 66.9322ZM26.5094 66.8203V66.9322C26.5094 67.2198 26.5378 67.4897 26.5946 67.7418C26.655 67.994 26.7473 68.2159 26.8716 68.4077C26.9959 68.5994 27.1539 68.7504 27.3457 68.8604C27.5374 68.967 27.7665 69.0202 28.0328 69.0202C28.3595 69.0202 28.6276 68.951 28.8372 68.8125C29.0502 68.674 29.2207 68.4911 29.3485 68.2638C29.4764 68.0366 29.5758 67.7898 29.6468 67.5234V66.2397C29.6042 66.0444 29.5421 65.8562 29.4604 65.6751C29.3823 65.4904 29.2793 65.3271 29.1514 65.185C29.0271 65.0394 28.8727 64.924 28.688 64.8388C28.5069 64.7536 28.2921 64.7109 28.0435 64.7109C27.7736 64.7109 27.541 64.7678 27.3457 64.8814C27.1539 64.9915 26.9959 65.1442 26.8716 65.3395C26.7473 65.5313 26.655 65.755 26.5946 66.0107C26.5378 66.2628 26.5094 66.5327 26.5094 66.8203ZM35.4502 68.6314V61.5682H36.441V69.75H35.5355L35.4502 68.6314ZM31.5724 66.9322V66.8203C31.5724 66.38 31.6257 65.9805 31.7322 65.6218C31.8423 65.2596 31.9968 64.9489 32.1956 64.6896C32.398 64.4304 32.6377 64.2315 32.9147 64.093C33.1953 63.951 33.5078 63.88 33.8522 63.88C34.2144 63.88 34.5305 63.9439 34.8004 64.0717C35.0738 64.196 35.3046 64.3789 35.4928 64.6204C35.6846 64.8583 35.8355 65.146 35.9456 65.4833C36.0557 65.8207 36.1321 66.2024 36.1747 66.6286V67.1186C36.1356 67.5412 36.0593 67.9212 35.9456 68.2585C35.8355 68.5959 35.6846 68.8835 35.4928 69.1214C35.3046 69.3594 35.0738 69.5423 34.8004 69.6701C34.5269 69.7944 34.2073 69.8565 33.8416 69.8565C33.5042 69.8565 33.1953 69.7837 32.9147 69.6381C32.6377 69.4925 32.398 69.2884 32.1956 69.0256C31.9968 68.7628 31.8423 68.4538 31.7322 68.0987C31.6257 67.7401 31.5724 67.3512 31.5724 66.9322ZM32.5632 66.8203V66.9322C32.5632 67.2198 32.5916 67.4897 32.6484 67.7418C32.7088 67.994 32.8011 68.2159 32.9254 68.4077C33.0497 68.5994 33.2077 68.7504 33.3995 68.8604C33.5912 68.967 33.8203 69.0202 34.0866 69.0202C34.4133 69.0202 34.6814 68.951 34.8909 68.8125C35.104 68.674 35.2745 68.4911 35.4023 68.2638C35.5301 68.0366 35.6296 67.7898 35.7006 67.5234V66.2397C35.658 66.0444 35.5958 65.8562 35.5142 65.6751C35.436 65.4904 35.333 65.3271 35.2052 65.185C35.0809 65.0394 34.9264 64.924 34.7418 64.8388C34.5607 64.7536 34.3458 64.7109 34.0972 64.7109C33.8274 64.7109 33.5948 64.7678 33.3995 64.8814C33.2077 64.9915 33.0497 65.1442 32.9254 65.3395C32.8011 65.5313 32.7088 65.755 32.6484 66.0107C32.5916 66.2628 32.5632 66.5327 32.5632 66.8203ZM43.2751 61.9943V69.75H42.263V61.9943H43.2751ZM45.768 61.9943V62.8359H39.7755V61.9943H45.768ZM48.5246 69.8565C48.1233 69.8565 47.7593 69.7891 47.4326 69.6541C47.1094 69.5156 46.8307 69.3221 46.5963 69.0735C46.3655 68.8249 46.1879 68.5302 46.0636 68.1893C45.9393 67.8484 45.8772 67.4755 45.8772 67.0707V66.8469C45.8772 66.3782 45.9464 65.9609 46.0849 65.5952C46.2234 65.2259 46.4116 64.9134 46.6496 64.6577C46.8875 64.402 47.1574 64.2085 47.4592 64.0771C47.7611 63.9457 48.0736 63.88 48.3967 63.88C48.8086 63.88 49.1638 63.951 49.4621 64.093C49.7639 64.2351 50.0107 64.4339 50.2025 64.6896C50.3942 64.9418 50.5363 65.2401 50.6286 65.5845C50.7209 65.9254 50.7671 66.2983 50.7671 66.7031V67.1452H46.4631V66.3409H49.7817V66.2663C49.7674 66.0107 49.7142 65.7621 49.6219 65.5206C49.5331 65.2791 49.391 65.0803 49.1957 64.924C49.0004 64.7678 48.7341 64.6896 48.3967 64.6896C48.173 64.6896 47.967 64.7376 47.7788 64.8335C47.5906 64.9258 47.429 65.0643 47.2941 65.2489C47.1591 65.4336 47.0544 65.6591 46.9798 65.9254C46.9052 66.1918 46.8679 66.4989 46.8679 66.8469V67.0707C46.8679 67.3441 46.9052 67.6016 46.9798 67.843C47.0579 68.081 47.1698 68.2905 47.3154 68.4716C47.4645 68.6527 47.6439 68.7947 47.8534 68.8977C48.0665 69.0007 48.3079 69.0522 48.5778 69.0522C48.9258 69.0522 49.2206 68.9812 49.4621 68.8391C49.7035 68.6971 49.9148 68.5071 50.0959 68.2692L50.6925 68.7433C50.5682 68.9315 50.4102 69.1108 50.2184 69.2813C50.0267 69.4517 49.7905 69.5902 49.51 69.6967C49.233 69.8033 48.9045 69.8565 48.5246 69.8565ZM52.7992 64.892V69.75H51.8138V63.9865H52.7726L52.7992 64.892ZM54.5996 63.9545L54.5943 64.8707C54.5126 64.853 54.4345 64.8423 54.3599 64.8388C54.2889 64.8317 54.2072 64.8281 54.1149 64.8281C53.8876 64.8281 53.687 64.8636 53.513 64.9347C53.339 65.0057 53.1916 65.1051 53.0709 65.233C52.9501 65.3608 52.8542 65.5135 52.7832 65.6911C52.7158 65.8651 52.6714 66.0568 52.6501 66.2663L52.3731 66.4261C52.3731 66.0781 52.4068 65.7514 52.4743 65.446C52.5453 65.1406 52.6536 64.8707 52.7992 64.6364C52.9448 64.3984 53.1295 64.2138 53.3532 64.0824C53.5805 63.9474 53.8503 63.88 54.1628 63.88C54.2339 63.88 54.3155 63.8888 54.4079 63.9066C54.5002 63.9208 54.5641 63.9368 54.5996 63.9545ZM56.3867 65.1317V69.75H55.3959V63.9865H56.3334L56.3867 65.1317ZM56.1843 66.6499L55.7262 66.6339C55.7298 66.2397 55.7812 65.8757 55.8807 65.5419C55.9801 65.2045 56.1275 64.9116 56.3228 64.663C56.5181 64.4144 56.7614 64.2227 57.0526 64.0877C57.3437 63.9492 57.6811 63.88 58.0646 63.88C58.3345 63.88 58.5831 63.919 58.8104 63.9972C59.0376 64.0717 59.2347 64.1907 59.4016 64.354C59.5685 64.5174 59.6981 64.7269 59.7905 64.9826C59.8828 65.2383 59.929 65.5472 59.929 65.9094V69.75H58.9435V65.9574C58.9435 65.6555 58.892 65.4141 58.7891 65.233C58.6896 65.0518 58.5476 64.9205 58.3629 64.8388C58.1783 64.7536 57.9616 64.7109 57.7131 64.7109C57.4219 64.7109 57.1786 64.7624 56.9833 64.8654C56.788 64.9684 56.6317 65.1104 56.5146 65.2915C56.3974 65.4727 56.3121 65.6804 56.2589 65.9148C56.2092 66.1456 56.1843 66.3906 56.1843 66.6499ZM59.9183 66.1065L59.2578 66.3089C59.2614 65.9929 59.3129 65.6893 59.4123 65.3981C59.5153 65.1069 59.6626 64.8477 59.8544 64.6204C60.0497 64.3931 60.2894 64.2138 60.5735 64.0824C60.8576 63.9474 61.1825 63.88 61.5483 63.88C61.8572 63.88 62.1307 63.9208 62.3686 64.0025C62.6101 64.0842 62.8125 64.2102 62.9758 64.3807C63.1428 64.5476 63.2688 64.7624 63.354 65.0252C63.4393 65.288 63.4819 65.6005 63.4819 65.9627V69.75H62.4911V65.9521C62.4911 65.6289 62.4396 65.3786 62.3366 65.201C62.2372 65.0199 62.0952 64.8938 61.9105 64.8228C61.7294 64.7482 61.5128 64.7109 61.2606 64.7109C61.044 64.7109 60.8523 64.7482 60.6854 64.8228C60.5185 64.8974 60.3782 65.0004 60.2646 65.1317C60.1509 65.2596 60.0639 65.407 60.0035 65.5739C59.9467 65.7408 59.9183 65.9183 59.9183 66.1065ZM65.9401 63.9865V69.75H64.9494V63.9865H65.9401ZM64.8748 62.4577C64.8748 62.2979 64.9227 62.163 65.0186 62.0529C65.118 61.9428 65.2636 61.8878 65.4554 61.8878C65.6436 61.8878 65.7874 61.9428 65.8869 62.0529C65.9898 62.163 66.0413 62.2979 66.0413 62.4577C66.0413 62.6104 65.9898 62.7418 65.8869 62.8519C65.7874 62.9585 65.6436 63.0117 65.4554 63.0117C65.2636 63.0117 65.118 62.9585 65.0186 62.8519C64.9227 62.7418 64.8748 62.6104 64.8748 62.4577ZM68.4037 65.217V69.75H67.4183V63.9865H68.3504L68.4037 65.217ZM68.1693 66.6499L67.7592 66.6339C67.7627 66.2397 67.8213 65.8757 67.935 65.5419C68.0486 65.2045 68.2084 64.9116 68.4144 64.663C68.6203 64.4144 68.8654 64.2227 69.1494 64.0877C69.4371 63.9492 69.7549 63.88 70.1029 63.88C70.387 63.88 70.6427 63.919 70.87 63.9972C71.0972 64.0717 71.2908 64.1925 71.4506 64.3594C71.6139 64.5263 71.7382 64.7429 71.8235 65.0092C71.9087 65.272 71.9513 65.5934 71.9513 65.9734V69.75H70.9605V65.9627C70.9605 65.6609 70.9161 65.4194 70.8274 65.2383C70.7386 65.0536 70.609 64.9205 70.4385 64.8388C70.2681 64.7536 70.0585 64.7109 69.81 64.7109C69.5649 64.7109 69.3412 64.7624 69.1388 64.8654C68.9399 64.9684 68.7677 65.1104 68.6221 65.2915C68.4801 65.4727 68.3682 65.6804 68.2865 65.9148C68.2084 66.1456 68.1693 66.3906 68.1693 66.6499ZM76.7426 68.7646V65.7976C76.7426 65.5703 76.6965 65.3732 76.6041 65.2063C76.5154 65.0359 76.3804 64.9045 76.1993 64.8121C76.0182 64.7198 75.7945 64.6737 75.5281 64.6737C75.2796 64.6737 75.0612 64.7163 74.873 64.8015C74.6883 64.8867 74.5427 64.9986 74.4362 65.1371C74.3332 65.2756 74.2817 65.4247 74.2817 65.5845H73.2963C73.2963 65.3786 73.3495 65.1744 73.4561 64.9719C73.5626 64.7695 73.7153 64.5866 73.9142 64.4233C74.1166 64.2564 74.3581 64.125 74.6386 64.0291C74.9227 63.9297 75.2387 63.88 75.5867 63.88C76.0058 63.88 76.3751 63.951 76.6947 64.093C77.0179 64.2351 77.27 64.4499 77.4511 64.7376C77.6357 65.0217 77.7281 65.3786 77.7281 65.8082V68.4929C77.7281 68.6847 77.7441 68.8888 77.776 69.1055C77.8115 69.3221 77.863 69.5085 77.9305 69.6648V69.75H76.9024C76.8527 69.6364 76.8137 69.4854 76.7853 69.2972C76.7568 69.1055 76.7426 68.9279 76.7426 68.7646ZM76.9131 66.2557L76.9237 66.9482H75.9277C75.6471 66.9482 75.3968 66.9712 75.1766 67.0174C74.9564 67.06 74.7718 67.1257 74.6226 67.2145C74.4735 67.3033 74.3598 67.4151 74.2817 67.5501C74.2036 67.6815 74.1645 67.8359 74.1645 68.0135C74.1645 68.1946 74.2054 68.3597 74.287 68.5089C74.3687 68.658 74.4912 68.777 74.6546 68.8658C74.8215 68.951 75.0257 68.9936 75.2671 68.9936C75.569 68.9936 75.8353 68.9297 76.0661 68.8018C76.297 68.674 76.4799 68.5178 76.6148 68.3331C76.7533 68.1484 76.8279 67.9691 76.8385 67.7951L77.2593 68.2692C77.2345 68.4183 77.167 68.5835 77.0569 68.7646C76.9468 68.9457 76.7995 69.1197 76.6148 69.2866C76.4337 69.4499 76.2171 69.5866 75.9649 69.6967C75.7164 69.8033 75.4358 69.8565 75.1233 69.8565C74.7327 69.8565 74.39 69.7802 74.0953 69.6275C73.8041 69.4748 73.5768 69.2706 73.4134 69.0149C73.2536 68.7557 73.1737 68.4663 73.1737 68.1467C73.1737 67.8377 73.2341 67.5661 73.3549 67.3317C73.4756 67.0938 73.6496 66.8967 73.8769 66.7404C74.1041 66.5806 74.3776 66.4599 74.6972 66.3782C75.0168 66.2965 75.3737 66.2557 75.7679 66.2557H76.9131ZM80.2449 61.5682V69.75H79.2542V61.5682H80.2449Z" fill="#8C8C8C"/>
</svg>
