<svg width="80" height="80" viewBox="0 0 80 80" fill="none" xmlns="http://www.w3.org/2000/svg">
<rect width="80" height="80" rx="40" fill="white"/>
<path d="M40.0005 25.936V36.061" stroke="#8C8C8C" stroke-width="1.125" stroke-linecap="round" stroke-linejoin="round"/>
<path d="M34.9377 30.9988H45.0627" stroke="#8C8C8C" stroke-width="1.125" stroke-linecap="round" stroke-linejoin="round"/>
<path d="M17.517 50.3452L15.4631 56H14.6236L16.9886 49.7955H17.5298L17.517 50.3452ZM19.2386 56L17.1804 50.3452L17.1676 49.7955H17.7088L20.0824 56H19.2386ZM19.1321 53.7031V54.3764H15.6463V53.7031H19.1321ZM23.6172 55.1051V49.4545H24.4098V56H23.6853L23.6172 55.1051ZM20.5149 53.7457V53.6563C20.5149 53.304 20.5575 52.9844 20.6427 52.6974C20.7308 52.4077 20.8544 52.1591 21.0135 51.9517C21.1754 51.7443 21.3672 51.5852 21.5888 51.4744C21.8132 51.3608 22.0632 51.304 22.3388 51.304C22.6285 51.304 22.8814 51.3551 23.0973 51.4574C23.316 51.5568 23.5007 51.7031 23.6513 51.8963C23.8047 52.0866 23.9254 52.3168 24.0135 52.5866C24.1015 52.8565 24.1626 53.1619 24.1967 53.5028V53.8949C24.1655 54.233 24.1044 54.5369 24.0135 54.8068C23.9254 55.0767 23.8047 55.3068 23.6513 55.4972C23.5007 55.6875 23.316 55.8338 23.0973 55.9361C22.8785 56.0355 22.6228 56.0852 22.3302 56.0852C22.0603 56.0852 21.8132 56.027 21.5888 55.9105C21.3672 55.794 21.1754 55.6307 21.0135 55.4205C20.8544 55.2102 20.7308 54.9631 20.6427 54.679C20.5575 54.392 20.5149 54.081 20.5149 53.7457ZM21.3075 53.6563V53.7457C21.3075 53.9759 21.3302 54.1918 21.3757 54.3935C21.424 54.5952 21.4978 54.7727 21.5973 54.9261C21.6967 55.0795 21.8231 55.2003 21.9765 55.2884C22.13 55.3736 22.3132 55.4162 22.5263 55.4162C22.7876 55.4162 23.0021 55.3608 23.1697 55.25C23.3402 55.1392 23.4765 54.9929 23.5788 54.8111C23.6811 54.6293 23.7606 54.4318 23.8175 54.2188V53.1918C23.7834 53.0355 23.7336 52.8849 23.6683 52.7401C23.6058 52.5923 23.5234 52.4616 23.4211 52.348C23.3217 52.2315 23.1981 52.1392 23.0504 52.071C22.9055 52.0028 22.7336 51.9688 22.5348 51.9688C22.3189 51.9688 22.1328 52.0142 21.9765 52.1051C21.8231 52.1932 21.6967 52.3153 21.5973 52.4716C21.4978 52.625 21.424 52.804 21.3757 53.0085C21.3302 53.2102 21.3075 53.4261 21.3075 53.6563ZM28.4602 55.1051V49.4545H29.2528V56H28.5284L28.4602 55.1051ZM25.3579 53.7457V53.6563C25.3579 53.304 25.4005 52.9844 25.4858 52.6974C25.5738 52.4077 25.6974 52.1591 25.8565 51.9517C26.0184 51.7443 26.2102 51.5852 26.4318 51.4744C26.6562 51.3608 26.9062 51.304 27.1818 51.304C27.4715 51.304 27.7244 51.3551 27.9403 51.4574C28.159 51.5568 28.3437 51.7031 28.4943 51.8963C28.6477 52.0866 28.7684 52.3168 28.8565 52.5866C28.9446 52.8565 29.0056 53.1619 29.0397 53.5028V53.8949C29.0085 54.233 28.9474 54.5369 28.8565 54.8068C28.7684 55.0767 28.6477 55.3068 28.4943 55.4972C28.3437 55.6875 28.159 55.8338 27.9403 55.9361C27.7215 56.0355 27.4659 56.0852 27.1733 56.0852C26.9034 56.0852 26.6562 56.027 26.4318 55.9105C26.2102 55.794 26.0184 55.6307 25.8565 55.4205C25.6974 55.2102 25.5738 54.9631 25.4858 54.679C25.4005 54.392 25.3579 54.081 25.3579 53.7457ZM26.1505 53.6563V53.7457C26.1505 53.9759 26.1733 54.1918 26.2187 54.3935C26.267 54.5952 26.3409 54.7727 26.4403 54.9261C26.5397 55.0795 26.6662 55.2003 26.8196 55.2884C26.973 55.3736 27.1562 55.4162 27.3693 55.4162C27.6306 55.4162 27.8451 55.3608 28.0127 55.25C28.1832 55.1392 28.3196 54.9929 28.4218 54.8111C28.5241 54.6293 28.6037 54.4318 28.6605 54.2188V53.1918C28.6264 53.0355 28.5767 52.8849 28.5113 52.7401C28.4488 52.5923 28.3664 52.4616 28.2642 52.348C28.1647 52.2315 28.0412 52.1392 27.8934 52.071C27.7485 52.0028 27.5767 51.9688 27.3778 51.9688C27.1619 51.9688 26.9758 52.0142 26.8196 52.1051C26.6662 52.1932 26.5397 52.3153 26.4403 52.4716C26.3409 52.625 26.267 52.804 26.2187 53.0085C26.1733 53.2102 26.1505 53.4261 26.1505 53.6563ZM34.7201 49.7955V56H33.9104V49.7955H34.7201ZM36.7144 49.7955V50.4688H31.9204V49.7955H36.7144ZM38.9196 56.0852C38.5986 56.0852 38.3074 56.0312 38.0461 55.9233C37.7875 55.8125 37.5645 55.6577 37.377 55.4588C37.1924 55.2599 37.0503 55.0241 36.9509 54.7514C36.8515 54.4787 36.8017 54.1804 36.8017 53.8565V53.6776C36.8017 53.3026 36.8571 52.9688 36.9679 52.6761C37.0787 52.3807 37.2293 52.1307 37.4196 51.9261C37.61 51.7216 37.8259 51.5668 38.0674 51.4616C38.3088 51.3565 38.5588 51.304 38.8174 51.304C39.1469 51.304 39.431 51.3608 39.6696 51.4744C39.9111 51.5881 40.1086 51.7472 40.262 51.9517C40.4154 52.1534 40.529 52.392 40.6029 52.6676C40.6767 52.9403 40.7137 53.2386 40.7137 53.5625V53.9162H37.2705V53.2727H39.9253V53.2131C39.914 53.0085 39.8713 52.8097 39.7975 52.6165C39.7265 52.4233 39.6128 52.2642 39.4566 52.1392C39.3003 52.0142 39.0873 51.9517 38.8174 51.9517C38.6384 51.9517 38.4736 51.9901 38.3231 52.0668C38.1725 52.1406 38.0432 52.2514 37.9353 52.3991C37.8273 52.5469 37.7435 52.7273 37.6838 52.9403C37.6242 53.1534 37.5944 53.3991 37.5944 53.6776V53.8565C37.5944 54.0753 37.6242 54.2813 37.6838 54.4744C37.7463 54.6648 37.8358 54.8324 37.9523 54.9773C38.0716 55.1222 38.2151 55.2358 38.3827 55.3182C38.5532 55.4006 38.7463 55.4418 38.9623 55.4418C39.2407 55.4418 39.4765 55.3849 39.6696 55.2713C39.8628 55.1577 40.0319 55.0057 40.1767 54.8153L40.654 55.1946C40.5546 55.3452 40.4282 55.4886 40.2748 55.625C40.1213 55.7614 39.9324 55.8722 39.708 55.9574C39.4864 56.0426 39.2236 56.0852 38.9196 56.0852ZM42.3394 52.1136V56H41.551V51.3892H42.3181L42.3394 52.1136ZM43.7797 51.3636L43.7754 52.0966C43.7101 52.0824 43.6476 52.0739 43.5879 52.071C43.5311 52.0653 43.4658 52.0625 43.3919 52.0625C43.2101 52.0625 43.0496 52.0909 42.9104 52.1477C42.7712 52.2045 42.6533 52.2841 42.5567 52.3864C42.4601 52.4886 42.3834 52.6108 42.3266 52.7528C42.2726 52.892 42.2371 53.0455 42.22 53.2131L41.9985 53.3409C41.9985 53.0625 42.0254 52.8011 42.0794 52.5568C42.1362 52.3125 42.2229 52.0966 42.3394 51.9091C42.4558 51.7188 42.6036 51.571 42.7825 51.4659C42.9644 51.358 43.1803 51.304 43.4303 51.304C43.4871 51.304 43.5524 51.3111 43.6263 51.3253C43.7002 51.3366 43.7513 51.3494 43.7797 51.3636ZM45.2094 52.3054V56H44.4168V51.3892H45.1668L45.2094 52.3054ZM45.0474 53.5199L44.681 53.5071C44.6838 53.1918 44.725 52.9006 44.8045 52.6335C44.8841 52.3636 45.002 52.1293 45.1582 51.9304C45.3145 51.7315 45.5091 51.5781 45.742 51.4702C45.975 51.3594 46.2449 51.304 46.5517 51.304C46.7676 51.304 46.9665 51.3352 47.1483 51.3977C47.3301 51.4574 47.4878 51.5526 47.6213 51.6832C47.7548 51.8139 47.8585 51.9815 47.9324 52.1861C48.0062 52.3906 48.0432 52.6378 48.0432 52.9276V56H47.2548V52.9659C47.2548 52.7244 47.2136 52.5313 47.1312 52.3864C47.0517 52.2415 46.9381 52.1364 46.7903 52.071C46.6426 52.0028 46.4693 51.9688 46.2705 51.9688C46.0375 51.9688 45.8429 52.0099 45.6866 52.0923C45.5304 52.1747 45.4054 52.2884 45.3116 52.4332C45.2179 52.5781 45.1497 52.7443 45.1071 52.9318C45.0673 53.1165 45.0474 53.3125 45.0474 53.5199ZM48.0347 53.0852L47.5062 53.2472C47.5091 52.9943 47.5503 52.7514 47.6298 52.5185C47.7122 52.2855 47.8301 52.0781 47.9835 51.8963C48.1398 51.7145 48.3315 51.571 48.5588 51.4659C48.7861 51.358 49.046 51.304 49.3386 51.304C49.5858 51.304 49.8045 51.3366 49.9949 51.402C50.1881 51.4673 50.35 51.5682 50.4807 51.7045C50.6142 51.8381 50.7151 52.0099 50.7832 52.2202C50.8514 52.4304 50.8855 52.6804 50.8855 52.9702V56H50.0929V52.9616C50.0929 52.7031 50.0517 52.5028 49.9693 52.3608C49.8898 52.2159 49.7761 52.1151 49.6284 52.0582C49.4835 51.9986 49.3102 51.9688 49.1085 51.9688C48.9352 51.9688 48.7818 51.9986 48.6483 52.0582C48.5148 52.1179 48.4026 52.2003 48.3116 52.3054C48.2207 52.4077 48.1511 52.5256 48.1028 52.6591C48.0574 52.7926 48.0347 52.9347 48.0347 53.0852ZM52.8521 51.3892V56H52.0595V51.3892H52.8521ZM51.9998 50.1662C51.9998 50.0384 52.0382 49.9304 52.1149 49.8423C52.1944 49.7543 52.3109 49.7102 52.4643 49.7102C52.6149 49.7102 52.7299 49.7543 52.8095 49.8423C52.8919 49.9304 52.9331 50.0384 52.9331 50.1662C52.9331 50.2884 52.8919 50.3935 52.8095 50.4815C52.7299 50.5668 52.6149 50.6094 52.4643 50.6094C52.3109 50.6094 52.1944 50.5668 52.1149 50.4815C52.0382 50.3935 51.9998 50.2884 51.9998 50.1662ZM54.823 52.3736V56H54.0346V51.3892H54.7804L54.823 52.3736ZM54.6355 53.5199L54.3073 53.5071C54.3102 53.1918 54.3571 52.9006 54.448 52.6335C54.5389 52.3636 54.6667 52.1293 54.8315 51.9304C54.9963 51.7315 55.1923 51.5781 55.4196 51.4702C55.6497 51.3594 55.9039 51.304 56.1823 51.304C56.4096 51.304 56.6142 51.3352 56.796 51.3977C56.9778 51.4574 57.1326 51.554 57.2605 51.6875C57.3911 51.821 57.4906 51.9943 57.5588 52.2074C57.6269 52.4176 57.661 52.6747 57.661 52.9787V56H56.8684V52.9702C56.8684 52.7287 56.8329 52.5355 56.7619 52.3906C56.6909 52.2429 56.5872 52.1364 56.4508 52.071C56.3144 52.0028 56.1468 51.9688 55.948 51.9688C55.7519 51.9688 55.573 52.0099 55.411 52.0923C55.2519 52.1747 55.1142 52.2884 54.9977 52.4332C54.884 52.5781 54.7946 52.7443 54.7292 52.9318C54.6667 53.1165 54.6355 53.3125 54.6355 53.5199ZM61.4941 55.2116V52.8381C61.4941 52.6563 61.4572 52.4986 61.3833 52.3651C61.3123 52.2287 61.2043 52.1236 61.0595 52.0497C60.9146 51.9759 60.7356 51.9389 60.5225 51.9389C60.3237 51.9389 60.1489 51.973 59.9984 52.0412C59.8506 52.1094 59.7342 52.1989 59.6489 52.3097C59.5666 52.4205 59.5254 52.5398 59.5254 52.6676H58.737C58.737 52.5028 58.7796 52.3395 58.8649 52.1776C58.9501 52.0156 59.0722 51.8693 59.2313 51.7386C59.3933 51.6051 59.5864 51.5 59.8109 51.4233C60.0381 51.3438 60.291 51.304 60.5694 51.304C60.9046 51.304 61.2001 51.3608 61.4558 51.4744C61.7143 51.5881 61.916 51.7599 62.0609 51.9901C62.2086 52.2173 62.2825 52.5028 62.2825 52.8466V54.9943C62.2825 55.1477 62.2952 55.3111 62.3208 55.4844C62.3492 55.6577 62.3904 55.8068 62.4444 55.9318V56H61.622C61.5822 55.9091 61.5509 55.7884 61.5282 55.6378C61.5055 55.4844 61.4941 55.3423 61.4941 55.2116ZM61.6305 53.2045L61.639 53.7585H60.8421C60.6177 53.7585 60.4174 53.777 60.2413 53.8139C60.0651 53.848 59.9174 53.9006 59.7981 53.9716C59.6788 54.0426 59.5879 54.1321 59.5254 54.2401C59.4629 54.3452 59.4316 54.4688 59.4316 54.6108C59.4316 54.7557 59.4643 54.8878 59.5296 55.0071C59.595 55.1264 59.693 55.2216 59.8237 55.2926C59.9572 55.3608 60.1205 55.3949 60.3137 55.3949C60.5552 55.3949 60.7683 55.3438 60.9529 55.2415C61.1376 55.1392 61.2839 55.0142 61.3918 54.8665C61.5026 54.7188 61.5623 54.5753 61.5708 54.4361L61.9075 54.8153C61.8876 54.9347 61.8336 55.0668 61.7455 55.2116C61.6575 55.3565 61.5396 55.4957 61.3918 55.6293C61.247 55.7599 61.0737 55.8693 60.872 55.9574C60.6731 56.0426 60.4487 56.0852 60.1987 56.0852C59.8862 56.0852 59.612 56.0241 59.3762 55.902C59.1433 55.7798 58.9614 55.6165 58.8308 55.4119C58.7029 55.2045 58.639 54.973 58.639 54.7173C58.639 54.4702 58.6873 54.2528 58.7839 54.0653C58.8805 53.875 59.0197 53.7173 59.2015 53.5923C59.3833 53.4645 59.6021 53.3679 59.8577 53.3026C60.1134 53.2372 60.3989 53.2045 60.7143 53.2045H61.6305ZM64.2959 49.4545V56H63.5033V49.4545H64.2959Z" fill="#8C8C8C"/>
</svg>
