<svg width="18" height="18" viewBox="0 0 18 18" fill="none" xmlns="http://www.w3.org/2000/svg">
<path d="M0.747476 2.90283C0.747476 1.76374 1.67089 0.840332 2.80998 0.840332H5.10806C6.24715 0.840332 7.17059 1.76375 7.17059 2.90283V5.20116C7.17059 6.34025 6.24715 7.26367 5.10806 7.26367H4.64555V10.6609C4.68825 10.6931 4.72923 10.7286 4.7681 10.7674L7.32624 13.3261C7.3652 13.3651 7.40076 13.4062 7.43294 13.449H10.8375V12.9902C10.8375 11.8511 11.761 10.9277 12.9 10.9277H15.1861C16.3252 10.9277 17.2486 11.8511 17.2486 12.9902V15.2857C17.2486 16.4247 16.3252 17.3482 15.1861 17.3482H12.9C11.761 17.3482 10.8375 16.4247 10.8375 15.2857V14.824H7.43266C7.40058 14.8666 7.3651 14.9075 7.32633 14.9463L4.7682 17.5056C4.32076 17.9532 3.59517 17.9533 3.14761 17.5058L0.588095 14.9465C0.140523 14.499 0.14056 13.7734 0.588187 13.3259L3.1477 10.7673C3.18667 10.7283 3.22774 10.6927 3.27055 10.6606V7.26367H2.80998C1.67089 7.26367 0.747476 6.34025 0.747476 5.20116V2.90283Z" fill="#1d212d"/>
</svg>
