<svg width="22" height="22" viewBox="0 0 22 22" fill="none" xmlns="http://www.w3.org/2000/svg">
<path d="M8.24902 8.25C8.24902 6.69167 9.44069 5.5 10.999 5.5C12.5574 5.5 13.749 6.69167 13.749 8.25C13.749 9.80833 12.5574 11 10.999 11C9.44069 11 8.24902 9.80833 8.24902 8.25ZM10.999 12.8333C6.78236 12.8333 5.49902 15.8583 5.49902 15.8583V17.4167H16.499V15.8583C16.499 15.8583 15.2157 12.8333 10.999 12.8333Z" fill="#F0F0F0"/>
<path d="M16.9596 10.0833C18.2253 10.0833 19.2513 9.05732 19.2513 7.79167C19.2513 6.52601 18.2253 5.5 16.9596 5.5C15.694 5.5 14.668 6.52601 14.668 7.79167C14.668 9.05732 15.694 10.0833 16.9596 10.0833Z" fill="#F0F0F0"/>
<path d="M16.9592 11.9167C15.8592 11.9167 15.0342 12.1917 14.3926 12.6501C16.5009 13.6584 17.3259 15.4001 17.3259 15.5834V15.6751H21.0842V14.4834C21.0842 14.3917 20.0759 11.9167 16.9592 11.9167Z" fill="#F0F0F0"/>
<path d="M16.9596 10.0833C18.2253 10.0833 19.2513 9.05732 19.2513 7.79167C19.2513 6.52601 18.2253 5.5 16.9596 5.5C15.694 5.5 14.668 6.52601 14.668 7.79167C14.668 9.05732 15.694 10.0833 16.9596 10.0833Z" fill="#F0F0F0"/>
<path d="M16.9592 11.9167C15.8592 11.9167 15.0342 12.1917 14.3926 12.6501C16.5009 13.6584 17.3259 15.4001 17.3259 15.5834V15.6751H21.0842V14.4834C21.0842 14.3917 20.0759 11.9167 16.9592 11.9167Z" fill="#F0F0F0"/>
<path d="M5.04167 10.0833C6.30732 10.0833 7.33333 9.05732 7.33333 7.79167C7.33333 6.52601 6.30732 5.5 5.04167 5.5C3.77601 5.5 2.75 6.52601 2.75 7.79167C2.75 9.05732 3.77601 10.0833 5.04167 10.0833Z" fill="#F0F0F0"/>
<path d="M5.04199 11.9167C6.14199 11.9167 6.96699 12.1917 7.60866 12.6501C5.50033 13.6584 4.67533 15.4001 4.67533 15.5834V15.6751H0.916992V14.4834C0.916992 14.3917 1.92533 11.9167 5.04199 11.9167Z" fill="#F0F0F0"/>
</svg>
