<svg width="18" height="14" viewBox="0 0 18 14" fill="none" xmlns="http://www.w3.org/2000/svg">
<path fill-rule="evenodd" clip-rule="evenodd" d="M15.4163 3.50137C16.3827 3.50172 17.1663 2.71864 17.1666 1.75232C17.167 0.785992 16.3839 0.00234792 15.4176 0.00199838L11.9182 0.000732539C10.9518 0.000382995 10.1682 0.783461 10.1678 1.74978C10.1675 2.71611 10.9506 3.49975 11.9169 3.5001L15.4163 3.50137ZM2.83301 0.0011778C1.72844 0.0011778 0.833008 0.896609 0.833008 2.00118V6.16637C0.833008 7.27094 1.72844 8.16637 2.83301 8.16637H5.83181C6.93638 8.16637 7.83181 7.27094 7.83181 6.16637V2.00118C7.83181 0.896608 6.93638 0.0011778 5.83181 0.0011778H2.83301ZM15.1623 13.9993C16.2668 13.9997 17.1626 13.1046 17.163 12.0001L17.1645 7.83487C17.1649 6.7303 16.2698 5.83454 15.1652 5.83414L12.1664 5.83306C11.0618 5.83266 10.1661 6.72777 10.1657 7.83233L10.1642 11.9975C10.1638 13.1021 11.0589 13.9979 12.1634 13.9983L15.1623 13.9993ZM0.833008 12.2493C0.833008 11.283 1.61637 10.4996 2.58269 10.4996H6.08213C7.04845 10.4996 7.83181 11.283 7.83181 12.2493C7.83181 13.2156 7.04845 13.999 6.08213 13.999H2.58269C1.61637 13.999 0.833008 13.2156 0.833008 12.2493Z" fill="white"/>
</svg>
