<svg width="22" height="26" viewBox="0 0 22 26" fill="none" xmlns="http://www.w3.org/2000/svg">
<g clip-path="url(#clip0_6263_81543)">
<path d="M7.46429 3.14383H14.5357V1.17955C14.5357 0.528878 15.0612 0.000976562 15.7143 0.000976562C16.3674 0.000976562 16.8929 0.528878 16.8929 1.17955V3.14383H18.8571C20.5906 3.14383 22 4.55075 22 6.28669V22.001C22 23.7345 20.5906 25.1438 18.8571 25.1438H3.14286C1.40692 25.1438 0 23.7345 0 22.001V6.28669C0 4.55075 1.40692 3.14383 3.14286 3.14383H5.10714V1.17955C5.10714 0.528878 5.63259 0.000976562 6.28571 0.000976562C6.93884 0.000976562 7.46429 0.528878 7.46429 1.17955V3.14383ZM2.35714 12.1795H6.28571V9.42955H2.35714V12.1795ZM2.35714 14.5367V17.6795H6.28571V14.5367H2.35714ZM8.64286 14.5367V17.6795H13.3571V14.5367H8.64286ZM15.7143 14.5367V17.6795H19.6429V14.5367H15.7143ZM19.6429 9.42955H15.7143V12.1795H19.6429V9.42955ZM19.6429 20.0367H15.7143V22.7867H18.8571C19.2893 22.7867 19.6429 22.4331 19.6429 22.001V20.0367ZM13.3571 20.0367H8.64286V22.7867H13.3571V20.0367ZM6.28571 20.0367H2.35714V22.001C2.35714 22.4331 2.70875 22.7867 3.14286 22.7867H6.28571V20.0367ZM13.3571 9.42955H8.64286V12.1795H13.3571V9.42955Z" fill="white"/>
</g>
<defs>
<clipPath id="clip0_6263_81543">
<rect width="22" height="25.1429" fill="white"/>
</clipPath>
</defs>
</svg>
