<svg width="14" height="17" viewBox="0 0 14 17" fill="none" xmlns="http://www.w3.org/2000/svg">
<path d="M11.7925 5.55688H2.2092C1.79253 5.55688 1.44531 5.90411 1.51475 6.32077L2.62586 15.418C2.69531 16.1124 3.32031 16.5986 4.01475 16.5986H9.91753C10.612 16.5986 11.237 16.1124 11.3064 15.418L12.4175 6.32077C12.487 5.90411 12.2092 5.55688 11.7925 5.55688Z" fill="#AA0000"/>
<path d="M12.5566 1.39084H9.08442C9.08442 0.626953 8.45942 0.00195312 7.69553 0.00195312H6.30664C5.54275 0.00195312 4.91775 0.626953 4.91775 1.39084H1.44553C0.681641 1.39084 0.0566406 2.01584 0.0566406 2.77973V3.47418C0.0566406 3.89084 0.334418 4.16862 0.751085 4.16862H13.2511C13.6678 4.16862 13.9455 3.89084 13.9455 3.47418V2.77973C13.9455 2.01584 13.3205 1.39084 12.5566 1.39084Z" fill="#AA0000"/>
</svg>
