<svg width="20" height="20" viewBox="0 0 20 20" fill="none" xmlns="http://www.w3.org/2000/svg">
<path d="M18.2502 0.833496H1.75016C1.50705 0.833496 1.27389 0.930073 1.10198 1.10198C0.930073 1.27389 0.833496 1.50705 0.833496 1.75016V10.9168H19.1668V1.75016C19.1668 1.50705 19.0703 1.27389 18.8983 1.10198C18.7264 0.930073 18.4933 0.833496 18.2502 0.833496Z" fill="white"/>
<path d="M0.833496 14.5833C0.833496 14.8264 0.930073 15.0596 1.10198 15.2315C1.27389 15.4034 1.50705 15.5 1.75016 15.5H7.60766L6.691 17.3333H5.41683V19.1667H14.5835V17.3333H13.3185L12.4018 15.5H18.2502C18.4933 15.5 18.7264 15.4034 18.8983 15.2315C19.0703 15.0596 19.1668 14.8264 19.1668 14.5833V12.75H0.833496V14.5833Z" fill="white"/>
</svg>
