<svg width="17" height="14" viewBox="0 0 17 14" fill="none" xmlns="http://www.w3.org/2000/svg">
<path d="M13.6663 0.33252H3.66634C1.83301 0.33252 0.333008 1.83252 0.333008 3.66585V10.3325C0.333008 12.1659 1.83301 13.6659 3.66634 13.6659H13.6663C15.4997 13.6659 16.9997 12.1659 16.9997 10.3325V3.66585C16.9997 1.83252 15.4997 0.33252 13.6663 0.33252ZM15.333 10.3325C15.333 11.2492 14.583 11.9992 13.6663 11.9992H3.66634C2.74967 11.9992 1.99967 11.2492 1.99967 10.3325V3.66585C1.99967 2.74919 2.74967 1.99919 3.66634 1.99919H13.6663C14.583 1.99919 15.333 2.74919 15.333 3.66585V10.3325Z" fill="black"/>
<path d="M13.2496 6.16602H8.24963C7.58297 6.16602 6.99963 6.74935 6.99963 7.41602V9.91602C6.99963 10.5827 7.58297 11.166 8.24963 11.166H13.2496C13.9163 11.166 14.4996 10.5827 14.4996 9.91602V7.41602C14.4996 6.74935 13.9163 6.16602 13.2496 6.16602Z" fill="black"/>
</svg>
