<svg width="22" height="22" viewBox="0 0 22 22" fill="none" xmlns="http://www.w3.org/2000/svg">
<path d="M12.834 5.50003V1.84253C12.889 1.88836 12.944 1.94336 12.9898 1.9892L18.1782 7.17753C18.224 7.22336 18.279 7.27836 18.3248 7.33336H14.6673C14.1815 7.33191 13.7161 7.13829 13.3726 6.79479C13.0291 6.45129 12.8354 5.98581 12.834 5.50003Z" fill="#F0F0F0"/>
<path d="M19.195 9.16663H14.6667C13.6942 9.16663 12.7616 8.78032 12.0739 8.09268C11.3863 7.40505 11 6.47242 11 5.49996V0.971626C10.8004 0.935149 10.5979 0.916741 10.395 0.916626H5.5C4.77065 0.916626 4.07118 1.20636 3.55546 1.72208C3.03973 2.23781 2.75 2.93728 2.75 3.66663V18.3333C2.75 19.0626 3.03973 19.7621 3.55546 20.2778C4.07118 20.7936 4.77065 21.0833 5.5 21.0833H16.5C17.2293 21.0833 17.9288 20.7936 18.4445 20.2778C18.9603 19.7621 19.25 19.0626 19.25 18.3333V9.77163C19.2499 9.56872 19.2315 9.36623 19.195 9.16663ZM6.41667 12.8333H10.0833C10.3264 12.8333 10.5596 12.9299 10.7315 13.1018C10.9034 13.2737 11 13.5068 11 13.75C11 13.9931 10.9034 14.2262 10.7315 14.3981C10.5596 14.5701 10.3264 14.6666 10.0833 14.6666H6.41667C6.17355 14.6666 5.94039 14.5701 5.76849 14.3981C5.59658 14.2262 5.5 13.9931 5.5 13.75C5.5 13.5068 5.59658 13.2737 5.76849 13.1018C5.94039 12.9299 6.17355 12.8333 6.41667 12.8333ZM15.5833 18.3333H6.41667C6.17355 18.3333 5.94039 18.2367 5.76849 18.0648C5.59658 17.8929 5.5 17.6597 5.5 17.4166C5.5 17.1735 5.59658 16.9404 5.76849 16.7684C5.94039 16.5965 6.17355 16.5 6.41667 16.5H15.5833C15.8264 16.5 16.0596 16.5965 16.2315 16.7684C16.4034 16.9404 16.5 17.1735 16.5 17.4166C16.5 17.6597 16.4034 17.8929 16.2315 18.0648C16.0596 18.2367 15.8264 18.3333 15.5833 18.3333Z" fill="#F0F0F0"/>
</svg>
