<svg width="20" height="20" viewBox="0 0 78 81" fill="none" xmlns="http://www.w3.org/2000/svg">
<path d="M58.5 38.8125V30.375C58.5 28.5848 57.8152 26.8679 56.5962 25.602C55.3772 24.3362 53.7239 23.625 52 23.625C50.2761 23.625 48.6228 24.3362 47.4038 25.602C46.1848 26.8679 45.5 28.5848 45.5 30.375V35.1M45.5 33.75V27C45.5 25.2098 44.8152 23.4929 43.5962 22.227C42.3772 20.9612 40.7239 20.25 39 20.25C37.2761 20.25 35.6228 20.9612 34.4038 22.227C33.1848 23.4929 32.5 25.2098 32.5 27V33.75M32.5 33.4125V30.375C32.5 28.5848 31.8152 26.8679 30.5962 25.602C29.3772 24.3362 27.7239 23.625 26 23.625C24.2761 23.625 22.6228 24.3362 21.4038 25.602C20.1848 26.8679 19.5 28.5848 19.5 30.375V47.25C19.5 45.4598 18.8152 43.7429 17.5962 42.477C16.3772 41.2112 14.7239 40.5 13 40.5C11.2761 40.5 9.62279 41.2112 8.40381 42.477C7.18482 43.7429 6.5 45.4598 6.5 47.25C6.5 54.4108 9.23928 61.2784 14.1152 66.3419C18.9912 71.4054 25.6044 74.25 32.5 74.25H45.5C52.3956 74.25 59.0088 71.4054 63.8848 66.3419C68.7607 61.2784 71.5 54.4108 71.5 47.25V37.125C71.5 35.3348 70.8152 33.6179 69.5962 32.352C68.3772 31.0862 66.7239 30.375 65 30.375C63.2761 30.375 61.6228 31.0862 60.4038 32.352C59.1848 33.6179 58.5 35.3348 58.5 37.125" stroke="black" stroke-width="2" stroke-linecap="round" stroke-linejoin="round"/>
</svg>
