<svg width="260" height="67" viewBox="0 0 260 67" fill="none" xmlns="http://www.w3.org/2000/svg">
<path d="M60.9418 51V27.9911C60.9418 18.2651 66.6106 13.9301 73.9468 13.9301C78.3374 13.9301 81.8387 15.653 84.0062 18.9321C86.1737 15.653 89.6751 13.9301 94.0657 13.9301C101.402 13.9301 107.071 18.2651 107.071 27.9911V51H98.0672V27.9911C98.0672 23.7673 96.0109 22.2667 93.2876 22.2667C90.6199 22.2667 88.508 23.7673 88.508 27.9911V51H79.5045V27.9911C79.5045 23.7673 77.3926 22.2667 74.7249 22.2667C72.0016 22.2667 69.9452 23.7673 69.9452 27.9911V51H60.9418ZM124.833 51.7225C118.719 51.7225 111.55 47.1652 111.55 37.6059C111.55 28.7692 117.663 22.8225 126.389 22.8225C135.003 22.8225 141.006 28.5469 141.006 37.5504V51H133.336V46.4427C131.891 49.8329 128.779 51.7225 124.833 51.7225ZM126.333 43.9417C130.113 43.9417 132.669 41.2184 132.669 37.2725C132.669 33.3265 130.113 30.6032 126.333 30.6032C122.554 30.6032 119.998 33.3265 119.998 37.2725C119.998 41.2184 122.554 43.9417 126.333 43.9417ZM157.09 51.7225C150.031 51.7225 145.474 47.9433 145.363 42.6634H153.588C153.644 44.1084 154.7 44.831 156.978 44.831C159.535 44.831 160.369 43.9417 160.369 42.7746C160.369 40.9406 158.368 40.7738 155.811 40.3848C152.032 39.829 145.807 38.8842 145.807 32.2705C145.807 26.7128 150.198 22.8225 157.034 22.8225C163.87 22.8225 168.094 26.7684 168.261 31.7148H160.146C159.924 30.4365 158.812 29.714 157.145 29.714C155.089 29.714 154.255 30.77 154.255 31.8815C154.255 33.5488 156.256 33.7711 158.812 34.1602C162.758 34.7159 168.816 35.7719 168.816 42.2744C168.816 47.9433 164.148 51.7225 157.09 51.7225ZM184.682 51.7225C177.846 51.7225 173.177 47.9988 173.177 40.1625V13.819H181.514V23.545H194.519V31.0479H181.514V40.1625C181.514 43.0525 182.848 43.9417 184.682 43.9417C186.516 43.9417 187.85 43.0525 187.85 40.1625V39.3288H196.186V40.1625C196.186 47.9988 191.518 51.7225 184.682 51.7225ZM213.878 51.7225C205.208 51.7225 199.094 45.609 199.094 37.2725C199.094 28.9359 205.208 22.8225 213.878 22.8225C222.548 22.8225 228.495 28.9359 228.495 37.2725V39.6067H207.765C208.431 42.8302 210.877 44.2752 213.878 44.2752C216.268 44.2752 218.046 43.775 219.102 42.2744H227.717C225.938 47.9433 220.714 51.7225 213.878 51.7225ZM207.931 34.3269H219.936C218.991 31.4925 216.768 30.2698 213.878 30.2698C210.988 30.2698 208.765 31.548 207.931 34.3269ZM232.825 51V35.3829C232.825 26.824 237.827 22.8225 245.163 22.8225C252.499 22.8225 257.446 26.7684 257.501 35.4384V35.6052L249.165 35.6052V35.3829C249.165 31.7148 247.497 30.6032 245.163 30.6032C242.829 30.6032 241.162 31.7148 241.162 35.3829V51H232.825Z" fill="#F6F6F6"/>
<path d="M26.8551 49.3804C38.3748 49.3804 47.7134 40.0418 47.7134 28.522C47.7134 17.0023 38.3748 7.66371 26.8551 7.66371C15.3353 7.66371 5.99672 17.0023 5.99672 28.522C5.99672 40.0418 15.3353 49.3804 26.8551 49.3804Z" stroke="#01542D" stroke-width="10.0281"/>
<path d="M40.5054 56.189C43.2652 56.189 45.5025 53.9518 45.5025 51.192C45.5025 48.4322 43.2652 46.1949 40.5054 46.1949C37.7456 46.1949 35.5084 48.4322 35.5084 51.192C35.5084 53.9518 37.7456 56.189 40.5054 56.189Z" fill="#FED732" stroke="white" stroke-width="0.731276"/>
</svg>
