<svg width="1044" height="270" viewBox="0 0 1044 270" fill="none" xmlns="http://www.w3.org/2000/svg">
<path d="M243.37 207V113.745C243.37 74.3253 266.346 56.7555 296.08 56.7555C313.875 56.7555 328.066 63.7384 336.851 77.0284C345.636 63.7384 359.827 56.7555 377.622 56.7555C407.355 56.7555 430.331 74.3253 430.331 113.745V207H393.84V113.745C393.84 96.6255 385.506 90.5436 374.468 90.5436C363.656 90.5436 355.097 96.6255 355.097 113.745V207H318.605V113.745C318.605 96.6255 310.046 90.5436 299.233 90.5436C288.196 90.5436 279.862 96.6255 279.862 113.745V207H243.37ZM502.321 209.928C477.543 209.928 448.485 191.457 448.485 152.714C448.485 116.898 473.263 92.7961 508.628 92.7961C543.543 92.7961 567.87 115.997 567.87 152.488V207H536.785V188.529C530.928 202.27 518.314 209.928 502.321 209.928ZM508.403 178.393C523.72 178.393 534.082 167.355 534.082 151.362C534.082 135.369 523.72 124.332 508.403 124.332C493.086 124.332 482.724 135.369 482.724 151.362C482.724 167.355 493.086 178.393 508.403 178.393ZM633.058 209.928C604.451 209.928 585.98 194.611 585.53 173.212H618.867C619.093 179.068 623.372 181.997 632.608 181.997C642.97 181.997 646.348 178.393 646.348 173.662C646.348 166.229 638.239 165.553 627.877 163.976C612.56 161.724 587.332 157.895 587.332 131.089C587.332 108.564 605.127 92.7961 632.833 92.7961C660.539 92.7961 677.659 108.789 678.334 128.837H645.447C644.546 123.656 640.041 120.728 633.284 120.728C624.949 120.728 621.57 125.007 621.57 129.513C621.57 136.27 629.68 137.171 640.041 138.748C656.034 141.001 680.587 145.28 680.587 171.635C680.587 194.611 661.666 209.928 633.058 209.928ZM744.89 209.928C717.184 209.928 698.262 194.836 698.262 163.075V56.305H732.05V95.7245H784.76V126.134H732.05V163.075C732.05 174.789 737.457 178.393 744.89 178.393C752.323 178.393 757.729 174.789 757.729 163.075V159.697H791.518V163.075C791.518 194.836 772.596 209.928 744.89 209.928ZM863.222 209.928C828.083 209.928 803.305 185.15 803.305 151.362C803.305 117.574 828.083 92.7961 863.222 92.7961C898.362 92.7961 922.464 117.574 922.464 151.362V160.823H838.444C841.147 173.888 851.059 179.744 863.222 179.744C872.908 179.744 880.116 177.717 884.396 171.635H919.311C912.102 194.611 890.929 209.928 863.222 209.928ZM839.12 139.424H887.775C883.946 127.936 874.936 122.98 863.222 122.98C851.509 122.98 842.499 128.161 839.12 139.424ZM940.015 207V143.704C940.015 109.014 960.288 92.7961 990.021 92.7961C1019.75 92.7961 1039.8 108.789 1040.03 143.929V144.605H1006.24V143.704C1006.24 128.837 999.482 124.332 990.021 124.332C980.56 124.332 973.803 128.837 973.803 143.704V207H940.015Z" fill="white"/>
<path d="M105.217 200.139C151.907 200.139 189.756 162.29 189.756 115.6C189.756 68.9103 151.907 31.0609 105.217 31.0609C58.5276 31.0609 20.6781 68.9103 20.6781 115.6C20.6781 162.29 58.5276 200.139 105.217 200.139Z" stroke="#01542D" stroke-width="40.6438"/>
<path d="M160.543 227.734C171.728 227.734 180.796 218.667 180.796 207.481C180.796 196.296 171.728 187.228 160.543 187.228C149.357 187.228 140.29 196.296 140.29 207.481C140.29 218.667 149.357 227.734 160.543 227.734Z" fill="#FED732" stroke="white" stroke-width="2.96387"/>
</svg>
