<svg width="18" height="18" viewBox="0 0 18 18" fill="none" xmlns="http://www.w3.org/2000/svg">
<path d="M14.1592 10.1251H5.625C5.32663 10.1251 5.04048 10.0066 4.82951 9.79561C4.61853 9.58463 4.5 9.29848 4.5 9.00012C4.5 8.70175 4.61853 8.4156 4.82951 8.20462C5.04048 7.99364 5.32663 7.87512 5.625 7.87512H14.1592L12.7046 6.42053C12.4946 6.20937 12.3769 5.92356 12.3773 5.62576C12.3777 5.32797 12.4962 5.04249 12.7068 4.83191C12.9174 4.62134 13.2029 4.50286 13.5007 4.50244C13.7984 4.50203 14.0843 4.61972 14.2954 4.8297L17.6704 8.2047C17.7749 8.30914 17.8578 8.43314 17.9143 8.56962C17.9709 8.7061 18 8.85238 18 9.00012C18 9.14785 17.9709 9.29413 17.9143 9.43061C17.8578 9.56709 17.7749 9.69109 17.6704 9.79553L14.2954 13.1705C14.1911 13.2755 14.067 13.3588 13.9304 13.4157C13.7938 13.4726 13.6473 13.502 13.4994 13.5022C13.3514 13.5024 13.2048 13.4734 13.068 13.4169C12.9313 13.3604 12.807 13.2774 12.7024 13.1727C12.5977 13.0681 12.5148 12.9438 12.4582 12.8071C12.4017 12.6703 12.3727 12.5238 12.3729 12.3758C12.3731 12.2278 12.4025 12.0813 12.4594 11.9447C12.5163 11.8081 12.5997 11.6841 12.7046 11.5797L14.1592 10.1251Z" fill="#BB4949"/>
<path d="M1.125 1.80847e-07H10.125C10.2728 -8.36215e-05 10.4191 0.0289582 10.5556 0.085465C10.6921 0.141972 10.8162 0.224836 10.9207 0.329318C11.0252 0.433801 11.108 0.557853 11.1645 0.694382C11.221 0.830911 11.2501 0.97724 11.25 1.125V3.375C11.25 3.67337 11.1315 3.95952 10.9205 4.1705C10.7095 4.38147 10.4234 4.5 10.125 4.5C9.82663 4.5 9.54048 4.38147 9.3295 4.1705C9.11853 3.95952 9 3.67337 9 3.375V2.25H2.25V15.75H9V14.625C9 14.3266 9.11853 14.0405 9.3295 13.8295C9.54048 13.6185 9.82663 13.5 10.125 13.5C10.4234 13.5 10.7095 13.6185 10.9205 13.8295C11.1315 14.0405 11.25 14.3266 11.25 14.625V16.875C11.2501 17.0228 11.221 17.1691 11.1645 17.3056C11.108 17.4421 11.0252 17.5662 10.9207 17.6707C10.8162 17.7752 10.6921 17.858 10.5556 17.9145C10.4191 17.971 10.2728 18.0001 10.125 18H1.125C0.977239 18.0001 0.83091 17.971 0.694381 17.9145C0.557852 17.858 0.4338 17.7752 0.329317 17.6707C0.224834 17.5662 0.141971 17.4421 0.0854635 17.3056C0.0289564 17.1691 -8.4877e-05 17.0228 -9.53674e-07 16.875V1.125C-8.4877e-05 0.97724 0.0289564 0.830911 0.0854635 0.694382C0.141971 0.557853 0.224834 0.433801 0.329317 0.329318C0.4338 0.224836 0.557852 0.141972 0.694381 0.085465C0.83091 0.0289582 0.977239 -8.36215e-05 1.125 1.80847e-07Z" fill="#BB4949"/>
</svg>
