<svg width="22" height="22" viewBox="0 0 22 22" fill="none" xmlns="http://www.w3.org/2000/svg">
<path d="M15.8125 9.625C16.9512 9.625 17.875 8.70117 17.875 7.5625C17.875 6.42383 16.9512 5.5 15.8125 5.5C14.6738 5.5 13.75 6.42383 13.75 7.5625C13.75 8.70117 14.6738 9.625 15.8125 9.625Z" fill="white"/>
<path d="M19.4219 2.75H2.57812C1.90781 2.75 1.375 3.2957 1.375 3.96602V18.034C1.375 18.7043 1.90781 19.25 2.57812 19.25H19.4219C20.0922 19.25 20.625 18.7043 20.625 18.034V3.96602C20.625 3.2957 20.0922 2.75 19.4219 2.75ZM14.9918 11.2449C14.8629 11.0945 14.6652 10.9785 14.4418 10.9785C14.2227 10.9785 14.068 11.0816 13.8918 11.2234L13.0883 11.9023C12.9207 12.0227 12.7875 12.1043 12.5941 12.1043C12.4094 12.1043 12.2418 12.0355 12.1215 11.9281C12.0785 11.8895 12.0012 11.8164 11.9367 11.752L9.625 9.25117C9.45312 9.05352 9.19531 8.92891 8.90742 8.92891C8.61953 8.92891 8.35313 9.0707 8.18555 9.26406L2.75 15.8211V4.62773C2.79297 4.33555 3.0207 4.125 3.31289 4.125H18.6828C18.9793 4.125 19.2199 4.34414 19.2371 4.64062L19.25 15.8297L14.9918 11.2449Z" fill="white"/>
</svg>
