<svg width="23" height="18" viewBox="0 0 23 18" fill="none" xmlns="http://www.w3.org/2000/svg">
<path d="M14.8 11.75H16.45C16.725 11.75 17 11.475 17 11.2V5.425C17 5.15 16.725 4.875 16.45 4.875H14.8C14.525 4.875 14.25 5.15 14.25 5.425V11.2C14.25 11.475 14.525 11.75 14.8 11.75ZM18.925 11.75H20.575C20.85 11.75 21.125 11.475 21.125 11.2V1.3C21.125 1.025 20.85 0.75 20.575 0.75H18.925C18.65 0.75 18.375 1.025 18.375 1.3V11.2C18.375 11.475 18.65 11.75 18.925 11.75ZM6.55 11.75H8.2C8.475 11.75 8.75 11.475 8.75 11.2V8.175C8.75 7.9 8.475 7.625 8.2 7.625H6.55C6.275 7.625 6 7.9 6 8.175V11.2C6 11.475 6.275 11.75 6.55 11.75ZM10.675 11.75H12.325C12.6 11.75 12.875 11.475 12.875 11.2V2.675C12.875 2.4 12.6 2.125 12.325 2.125H10.675C10.4 2.125 10.125 2.4 10.125 2.675V11.2C10.125 11.475 10.4 11.75 10.675 11.75ZM21.8125 14.5H3.25V1.4375C3.25 1.05766 2.94234 0.75 2.5625 0.75H1.1875C0.807656 0.75 0.5 1.05766 0.5 1.4375V15.875C0.5 16.6343 1.11574 17.25 1.875 17.25H21.8125C22.1923 17.25 22.5 16.9423 22.5 16.5625V15.1875C22.5 14.8077 22.1923 14.5 21.8125 14.5Z" fill="white"/>
</svg>
