<svg width="22" height="23" viewBox="0 0 22 23" fill="none" xmlns="http://www.w3.org/2000/svg">
<path d="M18.5587 3.81326C19.4446 3.81326 20.1628 4.53148 20.1628 5.41743V16.8713C20.1628 17.7572 19.4446 18.4754 18.5587 18.4754H11.9151C11.8356 18.4754 11.7574 18.4697 11.6809 18.4585L11.6808 3.83025C11.7573 3.81907 11.8356 3.81326 11.9151 3.81326H18.5587ZM10.0818 3.81104C10.1581 3.81104 10.2333 3.81637 10.3068 3.8267L10.3066 18.4576C10.2331 18.4679 10.1581 18.4732 10.0818 18.4732H3.43815C2.55219 18.4732 1.83398 17.755 1.83398 16.8691V5.4152C1.83398 4.52924 2.55219 3.81104 3.43815 3.81104H10.0818ZM14.3941 12.4277C14.1268 12.2255 13.7447 12.2441 13.4983 12.4859C13.2519 12.7277 13.2261 13.1094 13.4233 13.3804L13.4891 13.4581L15.5543 15.5626L15.6319 15.6307C15.8759 15.8146 16.2147 15.8145 16.4585 15.6305L16.536 15.5623L18.5985 13.4578L18.6644 13.38C18.8612 13.1089 18.8352 12.7272 18.5887 12.4856C18.3422 12.2439 17.9601 12.2256 17.693 12.428L17.6165 12.4954L16.0447 14.0992L14.4705 12.495L14.3941 12.4277ZM16.536 6.7662C16.2911 6.51627 15.903 6.49343 15.6319 6.69776L15.5543 6.76588L13.4891 8.87036C13.2232 9.14136 13.2272 9.57661 13.4983 9.84263C13.7447 10.0844 14.1268 10.103 14.3941 9.90075L14.4705 9.83346L16.0447 8.2293L17.6165 9.8331C17.8823 10.1042 18.3176 10.1086 18.5887 9.8429C18.8352 9.60127 18.8612 9.21959 18.6644 8.94845L18.5985 8.87068L16.536 6.7662Z" fill="white"/>
</svg>
