<svg width="16" height="16" viewBox="0 0 16 16" fill="none" xmlns="http://www.w3.org/2000/svg">
<path d="M11.3186 9.57456C11.8811 8.68956 12.2111 7.63956 12.2111 6.51081C12.2111 3.35706 9.6573 0.799561 6.5073 0.799561C3.35355 0.799561 0.799805 3.35706 0.799805 6.51081C0.799805 9.66456 3.35355 12.2221 6.50355 12.2221C7.6473 12.2221 8.7123 11.8846 9.6048 11.3071L9.86355 11.1271L13.9361 15.1996L15.1998 13.9133L11.1311 9.84081L11.3186 9.57456ZM9.7023 3.31956C10.5536 4.17081 11.0223 5.30331 11.0223 6.50706C11.0223 7.71081 10.5536 8.84331 9.7023 9.69456C8.85105 10.5458 7.71855 11.0146 6.5148 11.0146C5.31105 11.0146 4.17855 10.5458 3.3273 9.69456C2.47605 8.84331 2.0073 7.71081 2.0073 6.50706C2.0073 5.30331 2.47605 4.17081 3.3273 3.31956C4.17855 2.46831 5.31105 1.99956 6.5148 1.99956C7.71855 1.99956 8.85105 2.46831 9.7023 3.31956Z" fill="black"/>
</svg>
