<svg width="17" height="18" viewBox="0 0 17 18" fill="none" xmlns="http://www.w3.org/2000/svg">
<path d="M15.417 10.668L14.5836 10.1819C13.6809 9.6263 13.6809 8.30686 14.5836 7.7513L15.417 7.26519C16.1114 6.84852 16.3198 6.01519 15.9031 5.39019L15.2086 4.20964C14.792 3.51519 13.9586 3.30686 13.3336 3.72352L12.5003 4.20964C11.5975 4.76519 10.417 4.07075 10.417 3.02908V2.05686C10.417 1.29297 9.79198 0.667969 9.02809 0.667969H7.6392C6.87531 0.667969 6.25031 1.29297 6.25031 2.05686V2.95964C6.25031 4.0013 5.06976 4.69575 4.16698 4.14019L3.33365 3.72352C2.6392 3.30686 1.80587 3.58464 1.45865 4.20964L0.764201 5.39019C0.416979 6.08464 0.625312 6.91797 1.25031 7.33464L2.08365 7.82075C2.98642 8.30686 2.98642 9.69575 2.08365 10.1819L1.25031 10.668C0.555868 11.0846 0.347535 11.918 0.764201 12.543L1.45865 13.7235C1.87531 14.418 2.70865 14.6263 3.33365 14.2096L4.16698 13.793C5.06976 13.2374 6.25031 13.9319 6.25031 14.9735V15.9457C6.25031 16.7096 6.87531 17.3346 7.6392 17.3346H9.02809C9.79198 17.3346 10.417 16.7096 10.417 15.9457V15.043C10.417 14.0013 11.5975 13.3069 12.5003 13.8624L13.3336 14.3485C14.0281 14.7652 14.8614 14.4874 15.2086 13.8624L15.9031 12.6819C16.2503 11.918 16.042 11.0846 15.417 10.668ZM8.33365 11.7791C6.80587 11.7791 5.55587 10.5291 5.55587 9.0013C5.55587 7.47352 6.80587 6.22352 8.33365 6.22352C9.86142 6.22352 11.1114 7.47352 11.1114 9.0013C11.1114 10.5291 9.86142 11.7791 8.33365 11.7791Z" fill="black"/>
</svg>
