<svg width="22" height="22" viewBox="0 0 22 22" fill="none" xmlns="http://www.w3.org/2000/svg">
<path d="M20.3495 13.2L19.2495 12.5583C18.0578 11.825 18.0578 10.0833 19.2495 9.35L20.3495 8.70833C21.2661 8.15833 21.5411 7.05833 20.9911 6.23333L20.0744 4.675C19.5245 3.75833 18.4244 3.48333 17.5995 4.03333L16.4994 4.675C15.3078 5.40833 13.7495 4.49167 13.7495 3.11667V1.83333C13.7495 0.825 12.9245 0 11.9161 0H10.0828C9.07445 0 8.24945 0.825 8.24945 1.83333V3.025C8.24945 4.4 6.69112 5.31667 5.49945 4.58333L4.39945 4.03333C3.48278 3.48333 2.38278 3.85 1.92445 4.675L1.00778 6.23333C0.549451 7.15 0.824451 8.25 1.64945 8.8L2.74945 9.44167C3.94112 10.0833 3.94112 11.9167 2.74945 12.5583L1.64945 13.2C0.732784 13.75 0.457784 14.85 1.00778 15.675L1.92445 17.2333C2.47445 18.15 3.57445 18.425 4.39945 17.875L5.49945 17.325C6.69112 16.5917 8.24945 17.5083 8.24945 18.8833V20.1667C8.24945 21.175 9.07445 22 10.0828 22H11.9161C12.9245 22 13.7495 21.175 13.7495 20.1667V18.975C13.7495 17.6 15.3078 16.6833 16.4994 17.4167L17.5995 18.0583C18.5161 18.6083 19.6161 18.2417 20.0744 17.4167L20.9911 15.8583C21.4494 14.85 21.1744 13.75 20.3495 13.2ZM10.9995 14.6667C8.98278 14.6667 7.33278 13.0167 7.33278 11C7.33278 8.98333 8.98278 7.33333 10.9995 7.33333C13.0161 7.33333 14.6661 8.98333 14.6661 11C14.6661 13.0167 13.0161 14.6667 10.9995 14.6667Z" fill="white"/>
</svg>
