<svg width="18" height="16" viewBox="0 0 18 16" fill="none" xmlns="http://www.w3.org/2000/svg">
<path d="M15.05 0.300049H2.95C2.36672 0.300686 1.80751 0.532675 1.39507 0.945117C0.982626 1.35756 0.750637 1.91677 0.75 2.50005V13.5C0.750637 14.0833 0.982626 14.6425 1.39507 15.055C1.80751 15.4674 2.36672 15.6994 2.95 15.7H15.05C15.6333 15.6994 16.1925 15.4674 16.6049 15.055C17.0174 14.6425 17.2494 14.0833 17.25 13.5V2.50005C17.2494 1.91677 17.0174 1.35756 16.6049 0.945117C16.1925 0.532675 15.6333 0.300686 15.05 0.300049ZM3.5 8.00005C3.38605 8.00005 3.27491 7.96466 3.18195 7.89876C3.08898 7.83287 3.01878 7.73972 2.98104 7.6322C2.9433 7.52468 2.93989 7.4081 2.97128 7.29855C3.00266 7.18901 3.0673 7.09192 3.15625 7.0207L5.36966 5.25005L3.15625 3.47939C3.09982 3.43425 3.05284 3.37844 3.01798 3.31514C2.98313 3.25184 2.96108 3.18229 2.9531 3.11047C2.94512 3.03865 2.95136 2.96596 2.97147 2.89656C2.99159 2.82715 3.02517 2.76238 3.07031 2.70595C3.11545 2.64953 3.17127 2.60254 3.23457 2.56769C3.29787 2.53283 3.36741 2.51078 3.43923 2.5028C3.51105 2.49482 3.58374 2.50107 3.65315 2.52118C3.72256 2.54129 3.78732 2.57488 3.84375 2.62002L6.59375 4.82002C6.65824 4.87154 6.7103 4.93692 6.74607 5.0113C6.78185 5.08568 6.80043 5.16716 6.80043 5.2497C6.80043 5.33224 6.78185 5.41373 6.74607 5.48811C6.7103 5.56249 6.65824 5.62787 6.59375 5.67939L3.84375 7.87939C3.7462 7.95749 3.62496 8.00005 3.5 8.00005ZM9 8.00005H6.8C6.65413 8.00005 6.51424 7.9421 6.41109 7.83896C6.30795 7.73581 6.25 7.59592 6.25 7.45005C6.25 7.30418 6.30795 7.16428 6.41109 7.06114C6.51424 6.95799 6.65413 6.90005 6.8 6.90005H9C9.14587 6.90005 9.28576 6.95799 9.38891 7.06114C9.49205 7.16428 9.55 7.30418 9.55 7.45005C9.55 7.59592 9.49205 7.73581 9.38891 7.83896C9.28576 7.9421 9.14587 8.00005 9 8.00005Z" fill="#F0F0F0"/>
</svg>
