<svg width="20" height="18" viewBox="0 0 20 18" fill="none" xmlns="http://www.w3.org/2000/svg">
<path d="M0.625 0.719727V17.2822C0.625 17.4065 0.674386 17.5258 0.762294 17.6137C0.850201 17.7016 0.96943 17.751 1.09375 17.751H18.9062C19.0306 17.751 19.1498 17.7016 19.2377 17.6137C19.3256 17.5258 19.375 17.4065 19.375 17.2822V0.719727C19.375 0.595406 19.3256 0.476178 19.2377 0.38827C19.1498 0.300363 19.0306 0.250977 18.9062 0.250977H1.09375C0.96943 0.250977 0.850201 0.300363 0.762294 0.38827C0.674386 0.476178 0.625 0.595406 0.625 0.719727ZM2.87148 8.27832L5.87461 5.87598L2.87148 3.47363L3.65273 2.49707L7.87539 5.87598L3.65234 9.25449L2.87148 8.27832ZM10.625 9.00098H6.875V7.75098H10.625V9.00098Z" fill="white"/>
</svg>
