<svg width="21" height="22" viewBox="0 0 21 22" fill="none" xmlns="http://www.w3.org/2000/svg">
<path d="M20.5623 7.79445L18.6661 5.89824C18.5131 5.74731 18.3092 5.65918 18.0944 5.65123C17.8796 5.64327 17.6697 5.71607 17.506 5.85527C17.2532 6.07043 16.9288 6.18277 16.5971 6.17004C16.2654 6.1573 15.9506 6.02042 15.715 5.78652C15.4812 5.551 15.3444 5.23627 15.3317 4.90466C15.319 4.57306 15.4312 4.24876 15.6463 3.99601C15.7855 3.83228 15.8583 3.62233 15.8503 3.40758C15.8424 3.19282 15.7542 2.98884 15.6033 2.83585L13.7054 0.937493C13.545 0.777409 13.3276 0.6875 13.101 0.6875C12.8744 0.6875 12.6571 0.777409 12.4967 0.937493L9.47382 3.95991C9.28719 4.14721 9.14645 4.37517 9.06261 4.62593C9.04629 4.67414 9.01907 4.71794 8.98308 4.75394C8.94709 4.78993 8.90328 4.81714 8.85507 4.83347C8.60421 4.9173 8.37622 5.05821 8.18906 5.24511L0.437493 12.9967C0.277409 13.1571 0.1875 13.3744 0.1875 13.601C0.1875 13.8276 0.277409 14.045 0.437493 14.2054L2.33585 16.1016C2.48884 16.2525 2.69282 16.3406 2.90758 16.3486C3.12233 16.3566 3.33228 16.2838 3.49601 16.1446C3.74819 15.9277 4.07301 15.8141 4.40541 15.8266C4.7378 15.839 5.05319 15.9767 5.28839 16.2119C5.5236 16.4471 5.66123 16.7625 5.67371 17.0949C5.68619 17.4272 5.5726 17.7521 5.3557 18.0043C5.2165 18.168 5.1437 18.3779 5.15166 18.5927C5.15961 18.8074 5.24774 19.0114 5.39866 19.1644L7.29488 21.0606C7.45527 21.2207 7.67262 21.3106 7.89923 21.3106C8.12584 21.3106 8.34319 21.2207 8.50359 21.0606L16.2551 13.3091C16.4419 13.122 16.5828 12.8942 16.6668 12.6435C16.683 12.5951 16.7103 12.5512 16.7464 12.5151C16.7824 12.479 16.8264 12.4518 16.8748 12.4355C17.1254 12.3516 17.3532 12.2109 17.5403 12.0243L20.5628 9.00144C20.7223 8.84106 20.8118 8.62404 20.8117 8.39785C20.8116 8.17166 20.722 7.95471 20.5623 7.79445ZM10.7496 6.52042C10.6857 6.58428 10.6099 6.63493 10.5265 6.66949C10.4431 6.70405 10.3537 6.72184 10.2634 6.72184C10.1731 6.72184 10.0837 6.70405 10.0002 6.66949C9.91682 6.63493 9.84102 6.58428 9.77718 6.52042L9.28261 6.02585C9.15682 5.89627 9.08706 5.7224 9.08842 5.54181C9.08978 5.36122 9.16215 5.18841 9.28988 5.06074C9.4176 4.93307 9.59044 4.86078 9.77103 4.8595C9.95162 4.85822 10.1255 4.92805 10.255 5.0539L10.7496 5.54804C10.8134 5.61188 10.8641 5.68768 10.8986 5.7711C10.9332 5.85452 10.951 5.94393 10.951 6.03423C10.951 6.12453 10.9332 6.21394 10.8986 6.29736C10.8641 6.38078 10.8134 6.45658 10.7496 6.52042ZM12.6402 8.41105C12.5113 8.53988 12.3365 8.61225 12.1542 8.61225C11.972 8.61225 11.7972 8.53988 11.6682 8.41105L11.1956 7.93839C11.1317 7.87454 11.0811 7.79875 11.0465 7.71532C11.012 7.6319 10.9942 7.54249 10.9942 7.4522C10.9942 7.36191 11.012 7.2725 11.0465 7.18908C11.0811 7.10565 11.1317 7.02986 11.1956 6.96601C11.3245 6.83706 11.4994 6.76462 11.6818 6.76462C11.7721 6.76462 11.8615 6.78241 11.9449 6.81696C12.0283 6.85151 12.1041 6.90216 12.168 6.96601L12.6406 7.43866C12.7047 7.5025 12.7555 7.57836 12.7903 7.66188C12.825 7.74541 12.8429 7.83496 12.8429 7.92541C12.8429 8.01586 12.8251 8.10543 12.7905 8.18899C12.7559 8.27254 12.7051 8.34844 12.641 8.41234L12.6402 8.41105ZM14.5308 10.3017C14.467 10.3655 14.3912 10.4162 14.3078 10.4507C14.2243 10.4853 14.1349 10.5031 14.0446 10.5031C13.9543 10.5031 13.8649 10.4853 13.7815 10.4507C13.6981 10.4162 13.6223 10.3655 13.5584 10.3017L13.0858 9.82902C12.96 9.69944 12.8902 9.52556 12.8916 9.34497C12.8929 9.16438 12.9653 8.99158 13.093 8.8639C13.2208 8.73623 13.3936 8.66394 13.5742 8.66266C13.7548 8.66138 13.9286 8.73121 14.0582 8.85706L14.5308 9.32972C14.5951 9.39345 14.6461 9.46924 14.681 9.55275C14.7159 9.63625 14.734 9.72582 14.7342 9.81632C14.7344 9.90683 14.7167 9.99648 14.6822 10.0801C14.6476 10.1638 14.5969 10.2398 14.533 10.3038L14.5308 10.3017ZM16.4399 12.2155C16.3761 12.2794 16.3003 12.33 16.2169 12.3646C16.1334 12.3991 16.044 12.4169 15.9537 12.4169C15.8634 12.4169 15.774 12.3991 15.6906 12.3646C15.6072 12.33 15.5314 12.2794 15.4675 12.2155L14.976 11.7214C14.9108 11.6577 14.8589 11.5817 14.8233 11.4978C14.7877 11.414 14.7692 11.3238 14.7688 11.2327C14.7683 11.1416 14.786 11.0513 14.8208 10.9671C14.8555 10.8829 14.9067 10.8064 14.9713 10.7421C15.0359 10.6778 15.1126 10.6271 15.197 10.5927C15.2814 10.5583 15.3718 10.5411 15.4629 10.542C15.554 10.5428 15.644 10.5618 15.7277 10.5978C15.8114 10.6338 15.8872 10.686 15.9505 10.7516L16.4425 11.2453C16.5063 11.3091 16.5569 11.385 16.5915 11.4684C16.626 11.5518 16.6437 11.6412 16.6437 11.7315C16.6437 11.8218 16.6258 11.9112 16.5912 11.9947C16.5566 12.0781 16.5059 12.1538 16.4421 12.2176L16.4399 12.2155Z" fill="white"/>
</svg>
