<svg width="36" height="36" viewBox="0 0 36 36" fill="none" xmlns="http://www.w3.org/2000/svg">
<rect width="36" height="36" rx="18" fill="#E4FFE5"/>
<path d="M7.9976 23.5601V12.2589H12.5768C15.5662 12.2589 16.8968 13.8833 16.8968 16.1297C16.8968 17.7194 16.2229 19.0154 14.7714 19.6202L17.3115 23.5601H13.9938L11.9893 20.0177H10.797V23.5601H7.9976ZM10.797 17.4257H12.6114C13.7346 17.4257 14.0629 16.8727 14.0629 16.1297C14.0629 15.3866 13.7346 14.8509 12.6114 14.8509H10.797V17.4257ZM18.7639 23.5601V12.2589H22.7555C26.7299 12.2589 28.8035 14.5226 28.8035 17.9095C28.8035 21.2964 26.7299 23.5601 22.7555 23.5601H18.7639ZM21.5632 20.9681H22.7555C25.0192 20.9681 25.9696 19.793 25.9696 17.9095C25.9696 16.026 25.0192 14.8509 22.7555 14.8509H21.5632V20.9681Z" fill="#6D9149"/>
</svg>
