<svg width="22" height="22" viewBox="0 0 22 22" fill="none" xmlns="http://www.w3.org/2000/svg">
<path d="M15.1262 12.833C13.7512 12.833 12.6512 13.1997 11.8262 13.658C13.1095 14.758 13.6595 16.0413 13.7512 16.133L13.8428 16.3163V18.333H21.1762V16.4997C21.0845 16.4997 19.6178 12.833 15.1262 12.833Z" fill="white"/>
<path d="M15.1253 10.9997C16.8972 10.9997 18.3337 9.56325 18.3337 7.79134C18.3337 6.01943 16.8972 4.58301 15.1253 4.58301C13.3534 4.58301 11.917 6.01943 11.917 7.79134C11.917 9.56325 13.3534 10.9997 15.1253 10.9997Z" fill="white"/>
<path d="M3.66699 7.79134C3.66699 6.04967 5.13366 4.58301 6.87533 4.58301C8.61699 4.58301 10.0837 6.04967 10.0837 7.79134C10.0837 9.53301 8.61699 10.9997 6.87533 10.9997C5.13366 10.9997 3.66699 9.53301 3.66699 7.79134ZM6.87533 12.833C2.38366 12.833 0.916992 16.4997 0.916992 16.4997V18.333H12.8337V16.4997C12.8337 16.4997 11.367 12.833 6.87533 12.833Z" fill="white"/>
</svg>
