<svg width="20" height="20" viewBox="0 0 20 20" fill="none" xmlns="http://www.w3.org/2000/svg">
<path d="M0.833008 17.3333V19.1667H8.16634V17.3333C8.16421 16.7625 8.02886 16.2001 7.77105 15.6909C7.51324 15.1816 7.1401 14.7396 6.68134 14.4C7.0449 13.9263 7.2444 13.3471 7.24967 12.75C7.24967 12.0207 6.95994 11.3212 6.44422 10.8055C5.92849 10.2897 5.22902 10 4.49967 10C3.77033 10 3.07086 10.2897 2.55513 10.8055C2.03941 11.3212 1.74967 12.0207 1.74967 12.75C1.75495 13.3471 1.95445 13.9263 2.31801 14.4C1.85925 14.7396 1.48611 15.1816 1.2283 15.6909C0.970494 16.2001 0.835137 16.7625 0.833008 17.3333Z" fill="#F0F0F0"/>
<path d="M17.6813 5.23325C18.0449 4.75954 18.2444 4.18037 18.2497 3.58325C18.2497 2.85391 17.9599 2.15443 17.4442 1.63871C16.9285 1.12298 16.229 0.833252 15.4997 0.833252C14.7703 0.833252 14.0709 1.12298 13.5551 1.63871C13.0394 2.15443 12.7497 2.85391 12.7497 3.58325C12.755 4.18037 12.9544 4.75954 13.318 5.23325C12.8592 5.57287 12.4861 6.0149 12.2283 6.52415C11.9705 7.03339 11.8351 7.5958 11.833 8.16659V9.99992H19.1663V8.16659C19.1642 7.5958 19.0289 7.03339 18.771 6.52415C18.5132 6.0149 18.1401 5.57287 17.6813 5.23325Z" fill="#F0F0F0"/>
<path d="M3.58301 9.08325H5.41634V5.41659H10.9163V3.58325H3.58301V9.08325Z" fill="#F0F0F0"/>
<path d="M14.583 14.5833H9.08301V16.4166H16.4163V10.9166H14.583V14.5833Z" fill="#F0F0F0"/>
</svg>
